<svg xmlns="http://www.w3.org/2000/svg" viewBox="0 0 23.94 18.53"><defs><style>.cls-1{fill:#fff;}</style></defs><g id="Layer_2" data-name="Layer 2"><g id="Layer_1-2" data-name="Layer 1"><g id="SVGRepo_iconCarrier" data-name="SVGRepo iconCarrier"><path class="cls-1" d="M20.28,1.55A19.74,19.74,0,0,0,15.34,0a12.14,12.14,0,0,0-.63,1.31,18.64,18.64,0,0,0-5.48,0A12.21,12.21,0,0,0,8.59,0,19.36,19.36,0,0,0,3.65,1.56,20.74,20.74,0,0,0,.1,15.42a19.76,19.76,0,0,0,6.06,3.11,15.44,15.44,0,0,0,1.3-2.14,13.36,13.36,0,0,1-2-1c.17-.13.34-.26.5-.4A14,14,0,0,0,18,15l.5.4a12.4,12.4,0,0,1-2,1,14.47,14.47,0,0,0,1.29,2.14,19.76,19.76,0,0,0,6.06-3.11A20.73,20.73,0,0,0,20.28,1.55ZM8,12.63a2.32,2.32,0,0,1-2.15-2.45A2.31,2.31,0,0,1,8,7.73a2.3,2.3,0,0,1,2.15,2.45A2.3,2.3,0,0,1,8,12.63Zm8,0a2.32,2.32,0,0,1-2.15-2.45,2.31,2.31,0,0,1,2.15-2.45,2.3,2.3,0,0,1,2.16,2.45A2.31,2.31,0,0,1,15.94,12.63Z"/></g></g></g></svg>