<svg xmlns="http://www.w3.org/2000/svg" viewBox="0 0 23.74 23.34"><defs><style>.cls-1{fill:#fff;fill-rule:evenodd;}</style></defs><g id="Layer_2" data-name="Layer 2"><g id="Layer_1-2" data-name="Layer 1"><path class="cls-1" d="M11.88,0A12,12,0,0,0,8.12,23.32c.59.12.81-.26.81-.57s0-1.23,0-2.22c-3.31.71-4-1.43-4-1.43A3,3,0,0,0,3.6,17.36c-1.08-.74.08-.74.08-.74a2.49,2.49,0,0,1,1.83,1.23,2.51,2.51,0,0,0,3.46,1,2.5,2.5,0,0,1,.75-1.6C7.08,17,4.31,15.93,4.31,11.33A4.7,4.7,0,0,1,5.53,8.12,4.37,4.37,0,0,1,5.64,5s1-.31,3.27,1.23a11.5,11.5,0,0,1,5.94,0C17.11,4.64,18.11,5,18.11,5a4.33,4.33,0,0,1,.12,3.17,4.61,4.61,0,0,1,1.22,3.21c0,4.6-2.77,5.61-5.43,5.91a2.81,2.81,0,0,1,.81,2.22c0,1.6,0,2.89,0,3.29s.22.69.81.57A12,12,0,0,0,11.88,0Z"/></g></g></svg>