<svg xmlns="http://www.w3.org/2000/svg" viewBox="0 0 24 19.5"><defs><style>.cls-1{fill:#fff;}</style></defs><g id="Layer_2" data-name="Layer 2"><g id="Layer_1-2" data-name="Layer 1"><path class="cls-1" d="M21.54,4.85c0,.22,0,.43,0,.64a13.92,13.92,0,0,1-14,14h0A13.92,13.92,0,0,1,0,17.29a9.18,9.18,0,0,0,1.17.07,9.92,9.92,0,0,0,6.12-2.11,4.92,4.92,0,0,1-4.6-3.42,5,5,0,0,0,2.22-.08A4.93,4.93,0,0,1,1,6.92V6.86a4.85,4.85,0,0,0,2.24.61A4.92,4.92,0,0,1,1.67.9,14,14,0,0,0,11.82,6a4.93,4.93,0,0,1,8.39-4.49A10.08,10.08,0,0,0,23.34.36a5,5,0,0,1-2.17,2.72A9.92,9.92,0,0,0,24,2.3a9.78,9.78,0,0,1-2.46,2.55Z"/></g></g></svg>