<svg id="Layer_1" data-name="Layer 1" xmlns="http://www.w3.org/2000/svg" viewBox="0 0 534.5 534.5"><defs><style>.cls-1{fill:#231f20;}</style></defs><path class="cls-1" d="M-528.75,101C-676.35,101-796,220.65-796,368.25S-676.35,635.5-528.75,635.5-261.5,515.85-261.5,368.25-381.15,101-528.75,101Zm0,370.5v121C-652.6,592.5-753,492.1-753,368.25S-652.6,144-528.75,144V265A103.25,103.25,0,0,1-425.5,368.25,103.25,103.25,0,0,1-528.75,471.5Z" transform="translate(796 -101)"/><path class="cls-1" d="M-528.75,265V471.5A103.25,103.25,0,0,1-632,368.25,103.25,103.25,0,0,1-528.75,265Z" transform="translate(796 -101)"/></svg>