<svg xmlns="http://www.w3.org/2000/svg" id="Layer_1" data-name="Layer 1" viewBox="0 0 534.5 534.5" transform="matrix(-1, 0, 0, 1, 0, 0)"><defs fill="#050505"><style>.cls-1{fill:#050505;}</style></defs><path class="cls-1" d="M-1396,368.25c0,147.6,119.65,267.25,267.25,267.25S-861.5,515.85-861.5,368.25-981.15,101-1128.75,101-1396,220.65-1396,368.25Zm164,0A103.25,103.25,0,0,1-1128.75,265V144c123.85,0,224.25,100.4,224.25,224.25S-1004.9,592.5-1128.75,592.5v-121A103.25,103.25,0,0,1-1232,368.25Z" transform="translate(1396 -101)" fill="#050505"/><path class="cls-1" d="M-1128.75,265V471.5A103.25,103.25,0,0,0-1025.5,368.25,103.25,103.25,0,0,0-1128.75,265Z" transform="translate(1396 -101)" fill="#050505"/></svg>